<svg width="25" height="26" viewBox="0 0 25 26" fill="none" xmlns="http://www.w3.org/2000/svg">
<path fill-rule="evenodd" clip-rule="evenodd" d="M0.5 13C0.5 6.37258 5.87258 1 12.5 1C19.1274 1 24.5 6.37258 24.5 13C24.5 19.6274 19.1274 25 12.5 25C5.87258 25 0.5 19.6274 0.5 13Z" fill="white" stroke="#A69FAD"/>
<path fill-rule="evenodd" clip-rule="evenodd" d="M12.4998 9.81087C13.4763 9.81087 14.1349 10.2326 14.5105 10.5851L15.978 9.1522C15.0767 8.31442 13.9038 7.8002 12.4998 7.8002C10.466 7.8002 8.7096 8.96731 7.85449 10.666L9.53583 11.9718C9.9576 10.718 11.1247 9.81087 12.4998 9.81087Z" fill="#EA4335"/>
<path fill-rule="evenodd" clip-rule="evenodd" d="M17.492 13.1157C17.492 12.6881 17.4573 12.3761 17.3822 12.0525H12.5V13.9823H15.3658C15.308 14.4619 14.996 15.1841 14.3027 15.6694L15.9436 16.9405C16.9258 16.0334 17.492 14.6988 17.492 13.1157Z" fill="#4285F4"/>
<path fill-rule="evenodd" clip-rule="evenodd" d="M9.54158 14.0285C9.4318 13.7049 9.36825 13.3583 9.36825 13C9.36825 12.6418 9.4318 12.2952 9.5358 11.9716L7.85447 10.6658C7.50203 11.3707 7.2998 12.1623 7.2998 13C7.2998 13.8378 7.50203 14.6294 7.85447 15.3343L9.54158 14.0285Z" fill="#FBBC05"/>
<path fill-rule="evenodd" clip-rule="evenodd" d="M12.4999 18.2003C13.9039 18.2003 15.0826 17.7381 15.9435 16.9407L14.3026 15.6696C13.8635 15.9758 13.2741 16.1896 12.4999 16.1896C11.1248 16.1896 9.95768 15.2825 9.54168 14.0287L7.86035 15.3345C8.71546 17.0332 10.4661 18.2003 12.4999 18.2003Z" fill="#34A853"/>
</svg>
